<?xml version="1.0" encoding="UTF-8" standalone="no"?>
<!-- Created with Inkscape (http://www.inkscape.org/) -->

<svg
   xmlns:dc="http://purl.org/dc/elements/1.1/"
   xmlns:cc="http://creativecommons.org/ns#"
   xmlns:rdf="http://www.w3.org/1999/02/22-rdf-syntax-ns#"
   xmlns:svg="http://www.w3.org/2000/svg"
   xmlns="http://www.w3.org/2000/svg"
   xmlns:sodipodi="http://sodipodi.sourceforge.net/DTD/sodipodi-0.dtd"
   xmlns:inkscape="http://www.inkscape.org/namespaces/inkscape"
   width="140mm"
   height="69mm"
   viewBox="0 0 140 69"
   version="1.1"
   id="svg8"
   inkscape:version="0.92.4 (5da689c313, 2019-01-14)"
   sodipodi:docname="logo.svg">
  <defs
     id="defs2" />
  <sodipodi:namedview
     id="base"
     pagecolor="#ffffff"
     bordercolor="#666666"
     borderopacity="1.0"
     inkscape:pageopacity="0.0"
     inkscape:pageshadow="2"
     inkscape:zoom="0.98994949"
     inkscape:cx="168.51095"
     inkscape:cy="7.1261684"
     inkscape:document-units="mm"
     inkscape:current-layer="layer1"
     showgrid="false"
     inkscape:window-width="1920"
     inkscape:window-height="1018"
     inkscape:window-x="-8"
     inkscape:window-y="-8"
     inkscape:window-maximized="1" />
  <metadata
     id="metadata5">
    <rdf:RDF>
      <cc:Work
         rdf:about="">
        <dc:format>image/svg+xml</dc:format>
        <dc:type
           rdf:resource="http://purl.org/dc/dcmitype/StillImage" />
        <dc:title />
      </cc:Work>
    </rdf:RDF>
  </metadata>
  <g
     inkscape:label="Layer 1"
     inkscape:groupmode="layer"
     id="layer1"
     transform="translate(0,-228)">
    <rect
       style="fill:#71db77;fill-opacity:1;stroke-width:0.22913587"
       id="rect3715"
       width="10"
       height="60"
       x="0.44473651"
       y="237.63008" />
    <rect
       style="fill:#71db77;fill-opacity:1;stroke-width:0.21256416"
       id="rect3717"
       width="60"
       height="10"
       x="0.44473651"
       y="237.63008" />
    <path
       id="rect3717-5"
       style="fill:#71db77;fill-opacity:1;stroke-width:0.21256416"
       d="M 0.44488394,287.62987 V 297.6303 H 60.444839 v -10.00043 z"
       inkscape:connector-curvature="0" />
    <path
       id="rect3715-2"
       style="fill:#71db77;fill-opacity:1;stroke-width:0.17114905"
       d="m 50.444933,264.15534 v 33.47496 h 9.999906 v -33.47496 z"
       inkscape:connector-curvature="0" />
    <rect
       style="fill:#71db77;fill-opacity:1;stroke-width:0.16202353"
       id="rect3715-4"
       width="10"
       height="30"
       x="-274.15558"
       y="30.444736"
       transform="rotate(-90)" />
    <path
       id="rect3715-7"
       style="fill:#60ba65;fill-opacity:1;stroke-width:0.24170808"
       d="m 60.444839,264.00651 v 33.62741 l 9.999902,-10.00043 v -23.62698 z"
       inkscape:connector-curvature="0" />
    <path
       id="rect3827"
       style="fill:#60ba65;fill-opacity:1;stroke-width:0.15102598"
       d="m 60.444839,237.34635 v 10.2839 l 10.110942,-10.21376 c 5.3e-4,2.7e-4 -2.5e-4,-0.003 5.3e-4,-0.002 0.0294,-0.0461 0.0274,-0.0442 0.0602,-0.0616 5.3e-4,-0.002 7.9e-4,-0.004 0.002,-0.006 z"
       inkscape:connector-curvature="0" />
    <path
       id="rect3717-7"
       style="fill:#60ba65;fill-opacity:1;stroke-width:0.23059434"
       d="M 10.445307,227.62991 0.44488394,237.70062 v 5.3e-4 H 70.507271 c 10e-4,-5.3e-4 1.4e-4,-0.007 0.002,-0.005 0.0254,-0.0387 0.0299,-0.0433 0.0491,-0.0537 v -10.01252 z"
       inkscape:connector-curvature="0" />
    <rect
       style="fill:#60ba65;fill-opacity:1;stroke-width:0.17355764"
       id="rect3717-7-9"
       width="39.999897"
       height="9.9999924"
       x="-287.61423"
       y="11.084457"
       transform="matrix(0.00258354,-0.99999666,0.99999965,8.408653e-4,0,0)" />
    <rect
       style="fill:#60ba65;fill-opacity:1;stroke-width:0.17380178"
       id="rect3717-7-97"
       width="40.112484"
       height="10"
       x="10.341396"
       y="277.62262" />
    <path
       id="rect3717-7-97-9"
       style="fill:#60ba65;fill-opacity:1;stroke-width:0.17478901"
       d="m 40.445024,254.15543 -10.000421,10.14165 h 40.002718 v -10.14165 z m -9.130191,2.21166 c -0.004,0.0185 -0.0092,0.0366 -0.01344,0.0551 0.01069,-0.0116 0.02186,-0.0225 0.03256,-0.0341 -0.0063,-0.007 -0.01275,-0.014 -0.01913,-0.021 z m -0.83199,3.23729 c -0.01368,0.006 -0.03514,0.0131 -0.03824,0.0147 v 0.0241 z"
       inkscape:connector-curvature="0" />
    <rect
       style="fill:#71db77;fill-opacity:1;stroke-width:0.22913587"
       id="rect3715-6"
       width="10"
       height="60"
       x="70.444588"
       y="237.6337" />
    <rect
       style="fill:#71db77;fill-opacity:1;stroke-width:0.21256417"
       id="rect3717-4"
       width="60"
       height="10"
       x="70.444588"
       y="237.6337" />
    <path
       inkscape:connector-curvature="0"
       id="rect3717-5-0"
       style="fill:#71db77;fill-opacity:1;stroke-width:0.21256417"
       d="m 70.444741,287.63349 v 10.00042 h 59.999949 v -10.00042 z" />
    <path
       inkscape:connector-curvature="0"
       id="rect3715-2-8"
       style="fill:#71db77;fill-opacity:1;stroke-width:0.17114906"
       d="m 120.44478,264.15895 v 33.47496 h 9.99991 v -33.47496 z" />
    <rect
       style="fill:#71db77;fill-opacity:1;stroke-width:0.16202353"
       id="rect3715-4-3"
       width="10"
       height="30.000002"
       x="-274.15921"
       y="100.44456"
       transform="rotate(-90)" />
    <path
       inkscape:connector-curvature="0"
       id="rect3715-7-8"
       style="fill:#60ba65;fill-opacity:1;stroke-width:0.24170808"
       d="m 130.44469,264.01012 v 33.62741 l 9.9999,-10.00043 v -23.62698 z" />
    <path
       inkscape:connector-curvature="0"
       id="rect3827-3"
       style="fill:#60ba65;fill-opacity:1;stroke-width:0.14957312"
       d="m 130.44469,237.49981 v 10.13405 l 10.06398,-10.06493 c 5.3e-4,2.7e-4 -2.3e-4,-0.003 5.3e-4,-0.002 0.0293,-0.0454 0.0273,-0.0436 0.0599,-0.0608 5.3e-4,-0.002 8e-4,-0.004 0.002,-0.006 z" />
    <path
       inkscape:connector-curvature="0"
       id="rect3717-7-1"
       style="fill:#60ba65;fill-opacity:1;stroke-width:0.23059435"
       d="m 80.445161,227.63353 -10.00042,10.0707 v 5.3e-4 h 70.062379 c 0.001,-5.3e-4 1.5e-4,-0.007 0.002,-0.005 0.0254,-0.0387 0.0299,-0.0433 0.0491,-0.0537 v -10.01252 z" />
    <rect
       style="fill:#60ba65;fill-opacity:1;stroke-width:0.17355764"
       id="rect3717-7-9-0"
       width="39.999897"
       height="9.9999924"
       x="-287.55899"
       y="81.084198"
       transform="matrix(0.00258354,-0.99999666,0.99999965,8.4086436e-4,0,0)" />
    <rect
       style="fill:#60ba65;fill-opacity:1;stroke-width:0.17380178"
       id="rect3717-7-97-7"
       width="40.112488"
       height="10"
       x="80.341248"
       y="277.62622" />
    <path
       inkscape:connector-curvature="0"
       id="rect3717-7-97-9-9"
       style="fill:#60ba65;fill-opacity:1;stroke-width:0.17681304"
       d="m 110.44487,254.15905 -10.00042,10.37787 h 40.00273 v -10.37787 z m -9.13019,2.26316 c -0.004,0.0189 -0.009,0.0375 -0.0134,0.0564 0.0107,-0.0118 0.0219,-0.023 0.0326,-0.0349 -0.006,-0.007 -0.0127,-0.0143 -0.0191,-0.0215 z m -0.83199,3.31271 c -0.0137,0.006 -0.0351,0.0134 -0.0382,0.0151 v 0.0247 z" />
  </g>
</svg>
